<?xml version="1.0" encoding="UTF-8"?>
<svg width="200" height="200" viewBox="0 0 200 200" xmlns="http://www.w3.org/2000/svg">
  <rect x="0" y="0" width="200" height="200" fill="#f5f5f5"/>
  <circle cx="100" cy="100" r="50" fill="#e0e0e0"/>
  <path d="M125 85H75c-1.1 0-2 .9-2 2v26c0 1.1.9 2 2 2h50c1.1 0 2-.9 2-2V87c0-1.1-.9-2-2-2zm-2 26H77V89h46v22zm-38-16h30c.55 0 1-.45 1-1s-.45-1-1-1H85c-.55 0-1 .45-1 1s.45 1 1 1zm0 4h30c.55 0 1-.45 1-1s-.45-1-1-1H85c-.55 0-1 .45-1 1s.45 1 1 1zm0 4h30c.55 0 1-.45 1-1s-.45-1-1-1H85c-.55 0-1 .45-1 1s.45 1 1 1zm0 4h20c.55 0 1-.45 1-1s-.45-1-1-1H85c-.55 0-1 .45-1 1s.45 1 1 1z" fill="#9e9e9e"/>
</svg>