<?xml version="1.0" encoding="UTF-8"?><svg id="uuid-32114966-573a-4c81-912c-28e1a3f6681a" xmlns="http://www.w3.org/2000/svg" viewBox="0 0 140 45.18"><defs><style>.uuid-04381b3f-1b27-4386-83d1-99f0d25d969a{fill:#ec1c24;}.uuid-04381b3f-1b27-4386-83d1-99f0d25d969a,.uuid-7268ea8c-a21b-492c-9743-e4531740d2f9,.uuid-8eaa727b-4a6e-45bd-b9b6-7f993bf9021e{stroke-width:0px;}.uuid-7268ea8c-a21b-492c-9743-e4531740d2f9{fill:#fde200;}.uuid-8eaa727b-4a6e-45bd-b9b6-7f993bf9021e{fill:#fff;}</style></defs><path class="uuid-04381b3f-1b27-4386-83d1-99f0d25d969a" d="M3.03,28.15l24.38,15.73c1.31.85,2.84,1.3,4.4,1.3h101.01c3.97,0,7.19-3.22,7.19-7.19V7.19C140,3.22,136.78,0,132.81,0H31.8C30.24,0,28.72.45,27.4,1.29L3.03,17.03c-4.04,2.61-4.04,8.51,0,11.12M3.31,22.35c0-2.3,1.86-4.17,4.16-4.17s4.16,1.87,4.16,4.17-1.86,4.16-4.16,4.16-4.16-1.86-4.16-4.16"/><path class="uuid-7268ea8c-a21b-492c-9743-e4531740d2f9" d="M1.94,22.35c0,3.05,2.48,5.54,5.54,5.54s5.54-2.48,5.54-5.54-2.48-5.54-5.54-5.54-5.54,2.48-5.54,5.54M3.31,22.35c0-2.3,1.86-4.17,4.16-4.17s4.16,1.87,4.16,4.17-1.86,4.16-4.16,4.16-4.16-1.86-4.16-4.16"/><path class="uuid-8eaa727b-4a6e-45bd-b9b6-7f993bf9021e" d="M81.92,15.07h-.85v11.52c0,1.4-.11,2.57-.32,3.5-.19.84-.53,1.52-.99,2.03-.46.5-1.12.87-1.96,1.1-.92.26-2.11.39-3.53.39-1.35,0-2.49-.15-3.38-.44-.83-.27-1.48-.69-1.95-1.24-.48-.57-.83-1.31-1.04-2.21-.23-.97-.34-2.14-.34-3.48v-7.21h-5.51v7.96c0,1.78.22,3.38.65,4.76.45,1.43,1.17,2.66,2.16,3.64.98.99,2.27,1.74,3.83,2.25,1.51.49,3.36.75,5.5.75,4.13,0,7.25-.94,9.29-2.79,2.06-1.87,3.11-4.89,3.11-8.96v-11.56h-4.66Z"/><path class="uuid-8eaa727b-4a6e-45bd-b9b6-7f993bf9021e" d="M94.22,15.07h-.85v14.03c0,1.67-.28,2.86-.84,3.55-.51.64-1.57.96-3.15.96h-1.35v4.78h1.67c1.76,0,3.25-.23,4.43-.7,1.22-.48,2.2-1.15,2.91-2.01.7-.85,1.19-1.87,1.47-3.03.26-1.1.38-2.31.38-3.6v-13.98h-4.66Z"/><path class="uuid-8eaa727b-4a6e-45bd-b9b6-7f993bf9021e" d="M106.73,15.07h-.85v14.03c0,1.67-.28,2.86-.84,3.55-.51.64-1.57.96-3.15.96h-1.35v4.78h1.67c1.76,0,3.25-.23,4.43-.7,1.22-.48,2.2-1.15,2.91-2.01.7-.85,1.19-1.87,1.47-3.03.26-1.1.38-2.31.38-3.6v-13.98h-4.66Z"/><path class="uuid-8eaa727b-4a6e-45bd-b9b6-7f993bf9021e" d="M131.99,22.77c-.55-1.26-1.29-2.25-2.2-2.97-.91-.71-1.97-1.2-3.15-1.45-1.15-.25-2.36-.38-3.59-.38h-5.28v4.68h5.23c1.18,0,2.1.44,2.82,1.36.73.92,1.1,2.12,1.1,3.57v1.18h-11.36v4.84h17.25v-5.98c0-1.97-.28-3.6-.82-4.85"/><polygon class="uuid-8eaa727b-4a6e-45bd-b9b6-7f993bf9021e" points="77.03 7.97 74.56 12.18 71.59 12.18 71.59 7.97 77.03 7.97"/><polygon class="uuid-8eaa727b-4a6e-45bd-b9b6-7f993bf9021e" points="93.49 12.18 95.96 7.97 98.93 7.97 98.93 12.18 93.49 12.18"/><polygon class="uuid-8eaa727b-4a6e-45bd-b9b6-7f993bf9021e" points="33.06 14.19 33.06 8.59 40.2 8.59 36.91 14.19 33.06 14.19"/><polygon class="uuid-8eaa727b-4a6e-45bd-b9b6-7f993bf9021e" points="46.79 37.76 50.08 32.16 53.93 32.16 53.93 37.76 46.79 37.76"/><polygon class="uuid-8eaa727b-4a6e-45bd-b9b6-7f993bf9021e" points="31.8 37.76 48.91 8.59 55.2 8.59 38.3 37.76 31.8 37.76"/></svg>