<?xml version="1.0" encoding="UTF-8"?>
<svg width="100px" height="32px" viewBox="0 0 100 32" version="1.1" xmlns="http://www.w3.org/2000/svg">
    <title>Mada Logo</title>
    <g stroke="none" stroke-width="1" fill="none" fill-rule="evenodd">
        <g transform="translate(25, 4)" fill-rule="nonzero">
            <path d="M28,24 L21.6561916,24 L21.6561916,21.2060233 C21.2213707,21.8410658 20.6563019,22.3525202 19.9964387,22.7033833 C18.8909388,23.3184981 17.6288144,23.6444809 16.3483871,23.6444809 C10.9425605,23.6444809 6.56129998,19.2632227 6.56129998,13.8573961 C6.56129998,8.45156949 10.9425605,4.07030896 16.3483871,4.07030896 C17.6288144,4.07030896 18.8909388,4.39629171 19.9964387,5.01140654 C20.6563019,5.36226968 21.2213707,5.87372406 21.6561916,6.50876656 L21.6561916,3.71478988 L28,3.71478988 L28,24 Z" fill="#25A9E0"></path>
            <path d="M41.2990654,24 L34.9552569,24 L34.9552569,3.71478988 L41.2990654,3.71478988 L41.2990654,24 Z" fill="#25A9E0"></path>
            <path d="M48.6183908,24 L42.2745822,24 L42.2745822,3.71478988 L48.6183908,3.71478988 L48.6183908,6.50876656 C49.0532118,5.87372406 49.6182806,5.36226968 50.2781437,5.01140654 C51.3836437,4.39629171 52.6457681,4.07030896 53.9261953,4.07030896 C59.332022,4.07030896 63.7132825,8.45156949 63.7132825,13.8573961 C63.7132825,19.2632227 59.332022,23.6444809 53.9261953,23.6444809 C52.6457681,23.6444809 51.3836437,23.3184981 50.2781437,22.7033833 C49.6182806,22.3525202 49.0532118,21.8410658 48.6183908,21.2060233 L48.6183908,24 Z" fill="#25A9E0"></path>
            <path d="M42.2745822,13.8573961 C42.2745822,10.8846842 44.6746866,8.48458334 47.6473986,8.48458334 C50.6201105,8.48458334 53.0202149,10.8846842 53.0202149,13.8573961 C53.0202149,16.8301081 50.6201105,19.2302124 47.6473986,19.2302124 C44.6746866,19.2302124 42.2745822,16.8301081 42.2745822,13.8573961 Z" fill="#FFFFFF"></path>
            <path d="M13.4246752,13.8573961 C13.4246752,10.8846842 15.8247795,8.48458334 18.7974915,8.48458334 C21.7702035,8.48458334 24.1703078,10.8846842 24.1703078,13.8573961 C24.1703078,16.8301081 21.7702035,19.2302124 18.7974915,19.2302124 C15.8247795,19.2302124 13.4246752,16.8301081 13.4246752,13.8573961 Z" fill="#FFFFFF"></path>
            <path d="M0,24 L0,13.3125882 C0,8.17593576 4.17593576,4 9.31258821,4 L9.31258821,4 L16.3483871,4 L16.3483871,4.07030896 C10.9425605,4.07030896 6.56129998,8.45156949 6.56129998,13.8573961 C6.56129998,19.2632227 10.9425605,23.6444809 16.3483871,23.6444809 L16.3483871,23.7147899 L9.31258821,23.7147899 C4.17593576,23.7147899 0,19.5388541 0,14.4022017 L0,24 Z" fill="#006B36"></path>
            <path d="M70.2745822,19.8095241 C70.2745822,20.8717387 69.4146087,21.731713 68.3523941,21.731713 L1.92218816,21.731713 C0.859973555,21.731713 -8.87226334e-15,20.8717387 -8.87226334e-15,19.8095241 L-8.87226334e-15,7.9052682 C-8.87226334e-15,6.84305359 0.859973555,5.98307927 1.92218816,5.98307927 L68.3523941,5.98307927 C69.4146087,5.98307927 70.2745822,6.84305359 70.2745822,7.9052682 L70.2745822,19.8095241 Z" fill="#FFFFFF" style="mix-blend-mode: multiply;"></path>
        </g>
    </g>
</svg>