<?xml version="1.0" encoding="UTF-8"?>
<svg width="100px" height="32px" viewBox="0 0 100 32" version="1.1" xmlns="http://www.w3.org/2000/svg">
    <title>Mastercard Logo</title>
    <g stroke="none" stroke-width="1" fill="none" fill-rule="evenodd">
        <g transform="translate(22, 4)" fill-rule="nonzero">
            <circle fill="#FFB600" cx="23.4" cy="12" r="12"></circle>
            <circle fill="#F7981D" cx="31.5" cy="12" r="12"></circle>
            <path d="M27.4,20.8 C30.67,18.34 32.4,14.3 32.4,10 C32.4,5.7 30.67,1.66 27.4,-0.8 C24.13,-3.26 19.87,-3.26 16.6,-0.8 C13.33,1.66 11.6,5.7 11.6,10 C11.6,14.3 13.33,18.34 16.6,20.8 C19.87,23.26 24.13,23.26 27.4,20.8 Z" fill="#FF5F00"></path>
            <path d="M54,16.2 L54,15.7 L54.1,15.7 L54.1,15.5 L53.7,15.5 L53.7,15.7 L53.8,15.7 L53.8,16.2 L54,16.2 Z M55.1,16.2 L55.1,15.5 L54.9,15.5 L54.7,16 L54.5,15.5 L54.3,15.5 L54.3,16.2 L54.5,16.2 L54.5,15.7 L54.7,16.2 L54.8,16.2 L55,15.7 L55,16.2 L55.1,16.2 Z" fill="#F79410"></path>
            <path d="M55,13.8 L53,13.8 L53,6.2 L55,6.2 L55,13.8 Z" fill="#FF5F00"></path>
            <path d="M53.5,19.8 C50.92,19.8 48.8,17.68 48.8,15.1 C48.8,12.52 50.92,10.4 53.5,10.4 C54.57,10.4 55.62,10.79 56.4,11.51 C57.18,12.23 57.63,13.25 57.7,14.3 L55.9,14.3 C55.77,13.22 54.89,12.4 53.8,12.4 C52.71,12.4 51.83,13.22 51.7,14.3 L49.9,14.3 C49.97,13.25 50.42,12.23 51.2,11.51 C51.98,10.79 53.03,10.4 54.1,10.4 C56.68,10.4 58.8,12.52 58.8,15.1 C58.8,17.68 56.68,19.8 54.1,19.8 L53.5,19.8 Z" fill="#F79410"></path>
            <path d="M11.8,15 C11.8,10.48 14.07,6.43 17.6,4.1 C14.39,1.55 10.1,0.7 6.1,1.8 C2.1,2.9 -0.82,5.77 -1.9,9.4 C-2.98,13.03 -2.08,16.97 0.5,19.8 C3.08,22.63 7.02,23.98 11,23.4 C14.98,22.82 18.38,20.25 20,16.6 C15.4,16.6 11.8,13.19 11.8,15 Z" fill="#FF5F00"></path>
            <path d="M44.5,15 C44.5,19.52 42.23,23.57 38.7,25.9 C41.91,28.45 46.2,29.3 50.2,28.2 C54.2,27.1 57.12,24.23 58.2,20.6 C59.28,16.97 58.38,13.03 55.8,10.2 C53.22,7.37 49.28,6.02 45.3,6.6 C41.32,7.18 37.92,9.75 36.3,13.4 C40.9,13.4 44.5,16.81 44.5,15 Z" fill="#F79410"></path>
            <path d="M43.7,19.1 L43.7,18.5 L43.85,18.5 C43.93,18.5 44,18.57 44,18.65 C44,18.73 43.93,18.8 43.85,18.8 L43.7,18.8 L43.7,19.1 Z M43.85,18.2 L43.4,18.2 L43.4,19.4 L43.7,19.4 L43.7,19.1 L43.85,19.1 C44.16,19.1 44.4,18.86 44.4,18.55 C44.4,18.24 44.16,18 43.85,18 L43.85,18.2 Z" fill="#F79410"></path>
            <path d="M43.8,20.1 C42.79,20.1 41.97,19.28 41.97,18.27 C41.97,17.26 42.79,16.44 43.8,16.44 C44.81,16.44 45.63,17.26 45.63,18.27 C45.62,19.28 44.8,20.09 43.8,20.1 Z M43.8,16 C42.54,16 41.53,17.01 41.53,18.27 C41.53,19.53 42.54,20.54 43.8,20.54 C45.06,20.54 46.07,19.53 46.07,18.27 C46.07,17.01 45.06,16 43.8,16 Z" fill="#F79410"></path>
            <path d="M18.3,6.4 L22,6.4 L22,16.7 L18.3,16.7 L18.3,6.4 Z" fill="#FF5F00"></path>
            <path d="M18.6,4.1 C16.61,5.97 15.5,8.61 15.5,11.4 C15.5,14.19 16.61,16.83 18.6,18.7 C20.59,16.83 21.7,14.19 21.7,11.4 C21.7,8.61 20.59,5.97 18.6,4.1 Z" fill="#FF5F00"></path>
            <path d="M2.4,6.4 L2.4,16.7 L5.8,16.7 C7.69,16.77 9.41,15.59 9.9,13.8 L10.1,12.8 C10.53,10.86 9.32,8.94 7.4,8.5 C7.6,8.44 7.8,8.41 8,8.4 L8,8.4 C9.44,8.4 10.6,7.24 10.6,5.8 C10.6,4.36 9.44,3.2 8,3.2 L2.4,3.2 L2.4,6.4 Z M6.1,10.6 C6.87,10.6 7.5,11.23 7.5,12 C7.5,12.77 6.87,13.4 6.1,13.4 L6,13.4 L6,10.6 L6.1,10.6 Z M5.7,6.4 L6,6.4 C6.66,6.4 7.2,6.94 7.2,7.6 C7.2,8.26 6.66,8.8 6,8.8 L5.7,8.8 L5.7,6.4 Z" fill="#FF5F00"></path>
            <path d="M28.4,6.4 C26.21,6.25 24.24,7.75 23.8,9.9 C23.36,12.05 24.59,14.19 26.65,14.9 C28.71,15.61 31.02,14.7 32.1,12.8 L29.2,11.3 C28.58,11.96 27.55,12.18 26.7,11.8 C25.85,11.42 25.38,10.53 25.6,9.7 L32.4,9.7 C32.56,7.78 30.76,6.43 28.8,6.4 L28.4,6.4 Z M25.8,7.8 C26.2,7.25 26.84,6.93 27.5,6.96 C28.16,6.99 28.77,7.37 29.1,7.96 L25.8,7.8 Z" fill="#FF5F00"></path>
        </g>
    </g>
</svg>