<?xml version="1.0" encoding="UTF-8"?>
<svg width="800px" height="400px" viewBox="0 0 800 400" version="1.1" xmlns="http://www.w3.org/2000/svg" xmlns:xlink="http://www.w3.org/1999/xlink">
    <title>STC Pay Logo</title>
    <g stroke="none" stroke-width="1" fill="none" fill-rule="evenodd">
        <g transform="translate(100, 125)" fill-rule="nonzero">
            <path d="M243.529,38.045 C243.529,38.045 264.397,51.057 267.517,52.839 C270.637,54.621 272.173,55.958 272.173,58.631 C272.173,61.304 272.173,77.09 272.173,79.317 C272.173,81.544 271.082,83.327 267.963,85.554 C264.843,87.781 243.975,101.239 243.975,101.239 C243.975,101.239 223.553,87.336 220.879,85.999 C218.206,84.663 217.115,83.327 217.115,80.654 C217.115,77.981 217.115,61.749 217.115,61.749 C217.115,61.749 216.669,59.076 219.789,56.849 C222.908,54.621 243.529,38.045 243.529,38.045 Z" fill="#EC1C24"></path>
            <path d="M243.529,23.149 C243.529,23.149 221.371,36.608 217.806,38.836 C214.24,41.063 214.24,42.4 214.24,45.072 C214.24,47.745 214.24,62.64 214.24,64.422 C214.24,66.204 214.686,67.977 217.805,70.204 C220.925,72.431 243.083,85.89 243.083,85.89 C243.083,85.89 265.688,72.431 269.254,70.204 C272.82,67.977 272.82,65.749 272.82,63.076 C272.82,60.404 272.82,45.963 272.82,44.181 C272.82,42.399 272.82,40.172 268.808,37.944 C264.797,35.717 243.529,23.149 243.529,23.149 Z" fill="#FFFFFF"></path>
            <path d="M129.15,149.975 L129.15,149.975 C119.344,149.975 111.327,141.957 111.327,132.152 L111.327,132.152 C111.327,122.347 119.344,114.329 129.15,114.329 L129.15,114.329 C138.956,114.329 146.973,122.347 146.973,132.152 L146.973,132.152 C146.973,141.957 138.956,149.975 129.15,149.975 Z" fill="#EC1C24"></path>
            <path d="M0,89.917 L0,89.917 C0,70.306 15.865,54.441 35.476,54.441 L35.476,54.441 C55.087,54.441 70.953,70.306 70.953,89.917 L70.953,89.917 C70.953,109.528 55.087,125.394 35.476,125.394 L35.476,125.394 C15.865,125.394 0,109.528 0,89.917 Z" fill="#EC1C24"></path>
            <path d="M107.537,89.917 L107.537,89.917 C107.537,70.306 123.402,54.441 143.013,54.441 L143.013,54.441 C162.624,54.441 178.49,70.306 178.49,89.917 L178.49,89.917 C178.49,109.528 162.624,125.394 143.013,125.394 L143.013,125.394 C123.402,125.394 107.537,109.528 107.537,89.917 Z" fill="#EC1C24"></path>
            <path d="M358.065,63.859 L344.162,63.859 L344.162,116.057 L358.065,116.057 L358.065,63.859 Z M506.824,97.343 C506.824,103.445 502.813,108.21 495.917,108.21 C488.13,108.21 485.01,102.108 485.01,96.897 L485.01,63.858 L471.106,63.858 L471.106,98.679 C471.106,113.83 480.553,121.676 492.798,121.676 C501.275,121.676 507.27,117.393 511.281,112.183 L511.281,120.34 L524.3,120.34 L524.3,63.858 L506.824,63.858 L506.824,97.343 Z M418.42,95.56 C418.42,104.782 412.315,111.29 403.846,111.29 C395.376,111.29 389.272,104.782 389.272,95.56 C389.272,86.339 395.376,79.831 403.846,79.831 C412.315,79.831 418.42,86.339 418.42,95.56 Z M432.324,95.56 C432.324,79.832 419.513,63.859 403.846,63.859 C388.18,63.859 375.369,79.832 375.369,95.56 C375.369,111.29 388.18,127.262 403.846,127.262 C419.513,127.262 432.324,111.29 432.324,95.56 Z M437.982,64.305 L454.126,64.305 L454.126,120.787 L437.982,120.787 L437.982,64.305 Z M551.102,127.704 C557.207,127.704 562.865,125.923 566.876,122.841 L558.853,111.737 C556.178,113.073 553.505,113.965 550.832,113.965 C544.727,113.965 542.053,109.683 542.053,104.026 L542.053,77.992 L557.721,77.992 L557.721,64.304 L542.053,64.304 L542.053,50.617 L525.909,50.617 L525.909,64.304 L515.571,64.304 L515.571,77.992 L525.909,77.992 L525.909,106.253 C525.909,120.387 535.356,127.704 551.102,127.704 Z M367.966,77.991 L382.742,77.991 L382.742,120.786 L398.886,120.786 L398.886,77.991 L413.663,77.991 L413.663,64.304 L367.966,64.304 L367.966,77.991 Z" fill="#EC1C24"></path>
            <polygon fill="#EC1C24" points="36.568 82.292 44.591 82.292 44.591 97.897 36.568 97.897"></polygon>
            <polygon fill="#EC1C24" points="107.536 82.292 115.56 82.292 115.56 97.897 107.536 97.897"></polygon>
            <path d="M70.953,82.292 L78.977,82.292 L78.977,125.394 L70.953,125.394 L70.953,82.292 Z" fill="#EC1C24"></path>
            <path d="M446.054,31.536 C446.054,34.21 443.827,36.437 441.152,36.437 C438.478,36.437 436.25,34.21 436.25,31.536 C436.25,28.861 438.478,26.635 441.152,26.635 C443.827,26.635 446.054,28.861 446.054,31.536 Z M441.152,39.112 C444.919,39.112 448.282,35.749 448.282,31.982 C448.282,28.215 444.919,24.852 441.152,24.852 C437.385,24.852 434.022,28.215 434.022,31.982 C434.022,35.749 437.385,39.112 441.152,39.112 Z" fill="#EC1C24"></path>
        </g>
    </g>
</svg>