<?xml version="1.0" encoding="UTF-8"?>
<svg width="100px" height="32px" viewBox="0 0 100 32" version="1.1" xmlns="http://www.w3.org/2000/svg">
    <title>Visa Logo</title>
    <g stroke="none" stroke-width="1" fill="none" fill-rule="evenodd">
        <g transform="translate(0, 7)" fill-rule="nonzero">
            <polygon fill="#00579F" points="41.2 0.4 30.5 17.9 25.5 2.1 20.7 2.1 28.2 25.7 33.5 25.7 48.5 0.4"></polygon>
            <path d="M64.4,0.4 L57.3,0.4 L45.1,25.7 L51.7,25.7 L53.7,20.4 L65.1,20.4 L66.3,25.7 L72.9,25.7 L64.4,0.4 Z M56.1,15.3 L59.8,5.5 L63.5,15.3 L56.1,15.3 Z" fill="#00579F"></path>
            <path d="M84.3,6.5 C84.3,4.4 85.8,2.9 88.3,2.9 C90.2,2.9 91.5,3.6 92.4,4.4 L95.1,0.3 C93.4,-0.6 90.9,-1.1 88.4,-1.1 C82.5,-1.1 77.8,2.9 77.8,8.8 C77.8,14.4 81.6,17.1 85.2,17.1 C86.8,17.1 88.3,16.6 89.1,15.9 L89.1,15.1 C89.1,12.8 87.4,11.4 84.6,11.4 C82.6,11.4 81.2,12.1 80.2,12.9 L77.6,8.7 C79.8,7.1 82.5,6.5 84.3,6.5 Z" fill="#00579F"></path>
            <path d="M11.3,0.2 C5.6,0.2 1,4.8 1,10.5 C1,16.2 5.6,20.8 11.3,20.8 C17,20.8 21.6,16.2 21.6,10.5 C21.6,4.8 17,0.2 11.3,0.2 Z" fill="#FAA61A"></path>
            <path d="M0,17.6 L0,23.1 C3.4,24.7 7.2,25.6 11.3,25.6 C15.3,25.6 19.1,24.7 22.5,23.1 L22.5,17.6 C19.1,20.3 15.4,21.9 11.3,21.9 C7.1,21.9 3.4,20.3 0,17.6 Z" fill="#F7981D"></path>
            <path d="M0,3.4 L0,8.9 C3.4,6.2 7.1,4.6 11.2,4.6 C15.3,4.6 19,6.2 22.4,8.9 L22.4,3.4 C19,1.8 15.2,0.9 11.2,0.9 C7.1,0.9 3.4,1.8 0,3.4 Z" fill="#ED7C00"></path>
        </g>
    </g>
</svg>