<?xml version="1.0" encoding="UTF-8"?>
<svg width="24px" height="24px" viewBox="0 0 24 24" version="1.1" xmlns="http://www.w3.org/2000/svg">
  <g stroke="none" stroke-width="1" fill="none" fill-rule="evenodd">
    <g fill="#FFFFFF" fill-rule="nonzero">
      <path d="M11.2,10.9 L11.2,6.5 C11.2,6.2 11.4,6 11.7,6 L16.5,6 C16.8,6 17,6.2 17,6.5 C17,6.8 16.8,7 16.5,7 L12.2,7 L12.2,10 L16,10 C16.3,10 16.5,10.2 16.5,10.5 C16.5,10.8 16.3,11 16,11 L12.2,11 L12.2,14 L16.5,14 C16.8,14 17,14.2 17,14.5 C17,14.8 16.8,15 16.5,15 L9.2,15 C8.9,15 8.7,14.8 8.7,14.5 C8.7,14.2 8.9,14 9.2,14 L11.2,14 L11.2,11 L9.2,11 C8.9,11 8.7,10.8 8.7,10.5 C8.7,10.2 8.9,10 9.2,10 L11.2,10 L11.2,10.9 Z M7,16 C7.6,16 8,16.4 8,17 C8,17.6 7.6,18 7,18 C6.4,18 6,17.6 6,17 C6,16.4 6.4,16 7,16 Z"></path>
    </g>
  </g>
</svg>