<?xml version="1.0" encoding="UTF-8"?>
<svg width="200" height="150" viewBox="0 0 200 150" xmlns="http://www.w3.org/2000/svg">
  <!-- Delivery Van -->
  <g transform="translate(20, 90)">
    <rect x="0" y="0" width="120" height="40" rx="8" fill="#e91e29"/>
    <rect x="0" y="-30" width="70" height="30" fill="#e91e29"/>
    <rect x="70" y="-30" width="50" height="30" rx="5" fill="#e91e29"/>
    <circle cx="30" cy="40" r="10" fill="#333"/>
    <circle cx="30" cy="40" r="5" fill="#777"/>
    <circle cx="90" cy="40" r="10" fill="#333"/>
    <circle cx="90" cy="40" r="5" fill="#777"/>
    <rect x="10" y="-15" width="15" height="15" fill="#ffffff" opacity="0.7"/>
  </g>
  
  <!-- Package -->
  <g transform="translate(140, 80)">
    <rect x="0" y="0" width="40" height="40" fill="#ffdd00"/>
    <rect x="15" y="15" width="10" height="10" fill="#e91e29"/>
    <line x1="0" y1="0" x2="40" y2="40" stroke="#e91e29" stroke-width="2"/>
    <line x1="40" y1="0" x2="0" y2="40" stroke="#e91e29" stroke-width="2"/>
  </g>
  
  <!-- Speed Lines -->
  <g stroke="#ffdd00" stroke-width="3" stroke-linecap="round">
    <line x1="10" y1="70" x2="30" y2="70"/>
    <line x1="5" y1="85" x2="25" y2="85"/>
    <line x1="15" y1="100" x2="35" y2="100"/>
  </g>
  
  <!-- Cloud Elements -->
  <g fill="#f0f0f0">
    <circle cx="170" cy="30" r="15"/>
    <circle cx="150" cy="30" r="10"/>
    <circle cx="190" cy="30" r="10"/>
    <circle cx="50" cy="20" r="12"/>
    <circle cx="30" cy="20" r="8"/>
    <circle cx="70" cy="20" r="8"/>
  </g>
</svg>