<?xml version="1.0" encoding="UTF-8"?>
<svg width="120" height="60" viewBox="0 0 120 60" fill="none" xmlns="http://www.w3.org/2000/svg">
  <rect width="120" height="60" rx="4" fill="white"/>
  <path d="M52.3008 27.8984C51.4258 28.9609 50.1211 28.75 50.1211 28.75C50.1211 28.75 49.9531 27.5078 50.8281 26.5703C51.7656 25.5078 52.918 25.8047 52.918 25.8047C52.918 25.8047 53.1758 26.8359 52.3008 27.8984Z" fill="black"/>
  <path d="M53.0781 28.9609C53.1641 30.0852 54.0879 30.9824 55.1953 30.9863C56.3633 30.9863 57.1172 30.0859 57.2031 30.0859C57.2891 30.0859 57.3672 31.5391 58.8906 31.9219C58.918 31.9297 58.8906 31.9219 58.8906 31.9219C58.8906 31.9219 57.0312 35.0547 57.0312 38.2422C57.0312 41.8281 59.4531 43.4766 59.5391 43.5156C59.6251 43.5547 59.4453 44.0625 58.8906 44.75C58.3906 45.3719 57.7344 46.0938 56.6797 46.0938C55.625 46.0938 55.2344 45.5547 54.0781 45.5547C52.9219 45.5547 52.5703 46.0938 51.5156 46.0938C50.4609 46.0938 49.7188 45.293 49.0781 44.5547C47.5547 42.7812 46.375 39.5312 46.375 36.5156C46.375 31.9531 49.1562 29.5 51.875 29.5C52.9297 29.5 53.8203 30.0391 54.5156 30.0391C55.2109 30.0391 55.8281 29.5 57.125 29.5C57.8203 29.5 58.7266 29.6641 59.5391 30.0859C59.4531 30.0547 53.0078 28.0391 53.0781 28.9609Z" fill="black"/>
  <path fill-rule="evenodd" clip-rule="evenodd" d="M66.7109 42.7109C67.1328 42.7109 67.5 42.7499 67.8086 42.8279C68.1172 42.8669 68.3672 42.9449 68.6172 43.0619C68.8672 43.1789 69.0781 43.3349 69.2891 43.5298C69.4844 43.7248 69.6562 43.9588 69.7891 44.2709C69.9219 44.5826 69.9844 44.9338 69.9844 45.3239C69.9844 45.7529 69.9219 46.1039 69.7891 46.4159C69.6562 46.7279 69.4844 46.9619 69.2891 47.1569C69.0781 47.3519 68.8672 47.5079 68.6172 47.5859C68.3672 47.7029 68.1094 47.7809 67.8125 47.8199C67.5156 47.8589 67.1406 47.8979 66.7109 47.8979H63.9531V42.7109H66.7109ZM64.8516 43.5298V47.0779H66.7109C67.0703 47.0779 67.3516 47.0389 67.5703 47.0001C67.7891 46.9218 67.9844 46.8436 68.1641 46.7264C68.3437 46.5701 68.4609 46.4139 68.5547 46.1801C68.6484 45.9463 68.7031 45.6732 68.7031 45.3239C68.7031 44.9728 68.6484 44.7001 68.5547 44.4663C68.4609 44.2326 68.3359 44.0373 68.1641 43.9201C67.9922 43.7639 67.7891 43.6466 67.5703 43.6076C67.3516 43.5298 67.0781 43.5298 66.7109 43.5298H64.8516ZM72.1875 42.7109H73.0781V46.9217C73.0781 47.3897 73.1016 47.6626 73.1484 47.8189C73.1953 47.9751 73.2891 48.0922 73.4141 48.1704C73.5547 48.2485 73.6875 48.2875 73.8359 48.2875C73.9844 48.2875 74.1328 48.2485 74.2891 48.1704C74.4297 48.0922 74.5234 47.9751 74.5703 47.8189C74.6172 47.6626 74.6328 47.3897 74.6328 46.9217V42.7109H75.5234V46.9217C75.5234 47.5079 75.4766 47.9361 75.375 48.2485C75.2734 48.5608 75.0703 48.7951 74.7578 49.0286C74.4452 49.2624 74.0781 49.3794 73.6484 49.3794C73.2188 49.3794 72.8594 49.2624 72.5391 49.0286C72.2188 48.7951 72.0078 48.5608 71.9062 48.2485C71.7969 47.9361 71.75 47.5079 71.75 46.9217V42.7109H72.1875ZM72.1875 42.7109H71.2969V46.9217C71.2969 47.5079 71.3437 47.9361 71.4453 48.2485C71.5469 48.5608 71.75 48.7951 72.0625 49.0286C72.375 49.2624 72.7422 49.3794 73.1719 49.3794C73.6016 49.3794 73.9609 49.2624 74.2812 49.0286C74.6016 48.7951 74.8125 48.5608 74.9141 48.2485C75.0234 47.9361 75.0703 47.5079 75.0703 46.9217V42.7109H74.1797V46.9217C74.1797 47.3897 74.1562 47.6626 74.1094 47.8189C74.0625 47.9751 73.9687 48.0922 73.8437 48.1704C73.7031 48.2485 73.5703 48.2875 73.4219 48.2875C73.2734 48.2875 73.125 48.2485 72.9687 48.1704C72.8281 48.0922 72.7344 47.9751 72.6875 47.8189C72.6406 47.6626 72.625 47.3897 72.625 46.9217V42.7109H72.1875ZM76.7422 42.7109H77.6406V49.1069H76.7422V42.7109ZM81.9219 42.7109H82.8125V49.1069H82.0234L79.1484 44.1929V49.1069H78.25V42.7109H79.0391L81.9219 47.6251V42.7109ZM85.9297 42.7109H86.8203V48.2875H89.1719V49.1069H85.9297V42.7109ZM93.7969 42.7109H90.5625V49.1069H93.7969V48.2875H91.4609V46.3356H93.625V45.5162H91.4609V43.5298H93.7969V42.7109Z" fill="black"/>
</svg>