<?xml version="1.0" encoding="UTF-8"?>
<svg width="120" height="60" viewBox="0 0 120 60" fill="none" xmlns="http://www.w3.org/2000/svg">
  <rect width="120" height="60" rx="4" fill="white"/>
  <path d="M72.5 38H48.5V39H72.5V38Z" fill="#84BD00"/>
  <path d="M64.9156 35H53.5C53.2239 35 53 34.7761 53 34.5V24.5C53 24.2239 53.2239 24 53.5 24H64.9156C66.066 24 67 24.8969 67 26.0014V32.9986C67 34.1031 66.066 35 64.9156 35Z" fill="#84BD00"/>
  <path d="M64.857 21H56.143C54.958 21 54 21.9755 54 23.1817V26.8183C54 28.0245 54.958 29 56.143 29H64.857C66.042 29 67 28.0245 67 26.8183V23.1817C67 21.9755 66.042 21 64.857 21Z" fill="#6DCFF6"/>
</svg>