<?xml version="1.0" encoding="UTF-8"?>
<svg width="120" height="60" viewBox="0 0 120 60" fill="none" xmlns="http://www.w3.org/2000/svg">
  <rect width="120" height="60" rx="4" fill="white"/>
  <path d="M74.9992 40.4673H44.9999V19.532H74.9992V40.4673Z" fill="white"/>
  <path d="M47.4384 30C47.4384 25.8093 49.5246 22.0987 52.7307 19.5333C50.1538 17.5493 46.9446 16.3333 43.5 16.3333C35.4923 16.3333 29 22.486 29 30C29 37.514 35.4923 43.6667 43.5 43.6667C46.9446 43.6667 50.1538 42.4507 52.7307 40.4667C49.5246 37.9013 47.4384 34.1907 47.4384 30Z" fill="#EA001B"/>
  <path d="M91 30C91 37.514 84.5076 43.6667 76.5 43.6667C73.0553 43.6667 69.8461 42.4507 67.2692 40.4667C70.4753 37.9013 72.5615 34.1907 72.5615 30C72.5615 25.8093 70.4753 22.0987 67.2692 19.5333C69.8461 17.5493 73.0553 16.3333 76.5 16.3333C84.5076 16.3333 91 22.486 91 30Z" fill="#FF5F00"/>
  <path d="M67.2692 19.533C70.4754 22.0983 72.5615 25.809 72.5615 29.9997C72.5615 34.1903 70.4754 37.901 67.2692 40.4663C64.0631 37.901 61.9769 34.1903 61.9769 29.9997C61.9769 25.809 64.0631 22.0983 67.2692 19.533Z" fill="#FF9F00"/>
</svg>