<?xml version="1.0" encoding="UTF-8"?>
<svg width="120" height="60" viewBox="0 0 120 60" fill="none" xmlns="http://www.w3.org/2000/svg">
  <rect width="120" height="60" rx="4" fill="white"/>
  <path d="M28 30.0159C28 30.8492 28.6639 31.5 29.5183 31.5C30.3708 31.5 31.0304 30.8492 31.0304 30.0159C31.0304 29.1826 30.3646 28.5 29.5183 28.5C28.6639 28.5 28 29.1508 28 30.0159Z" fill="#6C2B90"/>
  <path d="M33.9393 25.2825C32.6051 25.2825 31.5206 26.3427 31.5206 27.6573C31.5206 28.9719 32.6051 30.0321 33.9393 30.0321C35.2736 30.0321 36.358 28.9719 36.358 27.6573C36.358 26.3427 35.2736 25.2825 33.9393 25.2825ZM33.9393 28.8512C33.2693 28.8512 32.7258 28.3202 32.7258 27.6573C32.7258 26.9943 33.2693 26.4633 33.9393 26.4633C34.6094 26.4633 35.1528 26.9943 35.1528 27.6573C35.1528 28.3202 34.6094 28.8512 33.9393 28.8512Z" fill="#6C2B90"/>
  <path d="M38.2993 33.0237C37.3002 33.0237 36.4846 33.8258 36.4846 34.8068C36.4846 35.7878 37.3002 36.5899 38.2993 36.5899C39.2983 36.5899 40.1139 35.7878 40.1139 34.8068C40.1139 33.8258 39.2983 33.0237 38.2993 33.0237ZM38.2993 35.4091C37.9621 35.4091 37.6897 35.1399 37.6897 34.8068C37.6897 34.4737 37.9621 34.2045 38.2993 34.2045C38.6365 34.2045 38.9089 34.4737 38.9089 34.8068C38.9089 35.1399 38.6365 35.4091 38.2993 35.4091Z" fill="#6C2B90"/>
  <path d="M54.2107 30.5714C54.2107 26.3532 50.3945 24.5 44.7803 24.5C39.166 24.5 37.5401 27.1627 37.5401 29.5317C37.5401 32.5238 40.2701 34.3651 45.5869 34.3651C50.9036 34.3651 52.7809 32.6746 52.7809 30.6032C52.7809 28.5317 50.7807 27.7262 46.915 27.7262C43.0494 27.7262 41.7643 28.5794 41.7643 28.9365C41.7643 29.2937 42.0158 29.6825 42.5147 29.6825C43.4728 29.6825 43.3755 28.2937 47.0917 28.2937C50.8078 28.2937 51.351 29.1111 51.351 30.5397C51.351 31.9682 50.0659 33.3492 45.7139 33.3492C41.362 33.3492 38.9705 31.9048 38.9705 29.5556C38.9705 27.2064 40.7909 25.4921 44.7803 25.4921C48.7697 25.4921 52.7809 26.2857 52.7809 30.5714H54.2107Z" fill="#6C2B90"/>
  <path d="M54.3074 34.071C54.3074 34.0353 54.3074 33.9996 54.3074 33.9639V31.0353H57.0374V33.1111C57.0374 33.8093 57.6605 34.3809 58.4274 34.3809H60.2478V33.1111H58.8465V28.0159H65C66.0526 28.0159 66.9161 28.8571 66.9161 29.8889V34.3809H68.5216V29.8889C68.5216 27.9841 66.9536 26.4524 65 26.4524H58.3499C57.9781 25.5 57.0374 24.8214 55.9172 24.8214C54.5159 24.8214 53.3956 25.9286 53.3956 27.3056C53.3956 28.6825 54.5159 29.7897 55.9172 29.7897C56.2494 29.7897 56.5597 29.7183 56.847 29.5992V30.7302H54.3074V31.0353V33.9639V34.071Z" fill="#6C2B90"/>
  <path d="M55.9172 28.2262C55.3936 28.2262 54.9702 27.8532 54.9702 27.3056C54.9702 26.758 55.3936 26.3849 55.9172 26.3849C56.4409 26.3849 56.8643 26.758 56.8643 27.3056C56.8643 27.8532 56.4409 28.2262 55.9172 28.2262Z" fill="#6C2B90"/>
  <path d="M68.5219 25.5359C68.5219 22.9874 70.6162 20.9277 73.2084 20.9277C75.8006 20.9277 77.8949 22.9874 77.8949 25.5359C77.8949 28.0843 75.8006 30.144 73.2084 30.144C70.6162 30.144 68.5219 28.0843 68.5219 25.5359ZM70.0963 25.5359C70.0963 27.2382 71.4784 28.5986 73.2084 28.5986C74.9385 28.5986 76.3206 27.2382 76.3206 25.5359C76.3206 23.8335 74.9385 22.4731 73.2084 22.4731C71.4784 22.4731 70.0963 23.8335 70.0963 25.5359Z" fill="#6C2B90"/>
  <path d="M78.7219 34.0712C78.7219 34.0354 78.7219 33.9997 78.7219 33.964V33.0117C78.7219 31.9799 77.8584 31.1387 76.8059 31.1387H73.6719V32.7023H76.8059V33.1113V33.964V34.0712C76.8059 36.0117 75.4046 37.5433 73.6719 37.5433H63.6104V34.381H62.0049V38.179C62.0049 38.4522 62.2318 38.678 62.5075 38.678H73.6719C75.8054 38.678 77.5381 37.1105 78.3051 35.0593C78.3051 35.0235 78.3051 34.9878 78.3051 34.9521V34.0712H78.7219Z" fill="#6C2B90"/>
  <path d="M90.4002 29.5199C90.4002 26.0149 87.4907 24.5 83.5013 24.5C79.5119 24.5 76.8711 26.3294 76.8711 29.0686C76.8711 30.6449 77.8293 31.9524 79.5911 32.7183L79.1887 33.5398C79.0721 33.7865 79.0915 34.0689 79.2276 34.2977C79.3637 34.5266 79.6176 34.6728 79.8983 34.6728H86.5433L86.9068 33.5079C88.7856 32.9593 90.4002 31.4785 90.4002 29.5199ZM81.6615 33.1765L82.0445 32.3551C82.1221 32.1969 82.0833 32.0068 81.9666 31.8921C80.3018 30.4748 78.3017 30.1652 78.3017 29.0924C78.3017 27.2936 80.2435 25.4949 83.5013 25.4949C87.8149 25.4949 88.9697 27.8183 88.9697 29.5199C88.9697 31.6867 86.3303 32.5162 84.2723 32.5162C81.6809 32.5162 81.6809 33.1765 81.6809 33.1765H81.6615Z" fill="#6C2B90"/>
</svg>