<?xml version="1.0" encoding="UTF-8"?>
<svg width="120" height="60" viewBox="0 0 120 60" fill="none" xmlns="http://www.w3.org/2000/svg">
  <rect width="120" height="60" rx="4" fill="white"/>
  <path d="M79.7997 23.6133H75.4954C74.6271 23.6133 73.984 23.856 73.6245 24.8179L67.1948 40.3867H72.8018C72.8018 40.3867 73.584 38.272 73.6958 37.952C74.1244 37.952 78.7983 37.9653 79.3507 37.9653C79.436 38.3813 79.8619 40.3867 79.8619 40.3867H84.9211L79.7997 23.6133ZM75.2253 33.8493C75.5476 33.008 76.8833 29.6587 76.8833 29.6587C76.8568 29.7027 77.2202 28.7407 77.4261 28.1813L77.6985 29.5267C77.6985 29.5267 78.5403 33.152 78.6936 33.8493H75.2253Z" fill="#172B85"/>
  <path d="M65.9001 34.56L68.3881 25.048C68.3881 25.048 65.8736 23.992 63.0723 23.992C60.0668 23.992 53.0787 24.9933 53.0787 30C53.0787 34.6933 60.8856 34.6347 60.8856 36.8427C60.8856 38.9467 54.7431 38.6907 52.5222 37.176L50 46.8693C50 46.8693 52.5222 48 56.3184 48C60.1412 48 67.0783 45.8987 67.0783 40.8587C67.0783 36.1253 59.2092 35.896 59.2092 34.0827C59.2092 32.3773 64.0682 32.744 65.9001 34.56Z" fill="#172B85"/>
  <path d="M50 23.6133L50.2591 25.096C50.2591 25.096 52.7017 23.5227 55.4364 23.1067L59.456 40.3867H65.0758L71.616 23.6133H66.0399L62.5199 33.7613L60.8025 25.1867C60.8025 25.1867 60.3871 24.0587 58.6961 23.7467L50 23.6133Z" fill="#172B85"/>
</svg>