<?xml version="1.0" encoding="UTF-8"?>
<svg width="300px" height="300px" viewBox="0 0 300 300" version="1.1" xmlns="http://www.w3.org/2000/svg" xmlns:xlink="http://www.w3.org/1999/xlink">
  <title>Image Placeholder</title>
  <g stroke="none" stroke-width="1" fill="none" fill-rule="evenodd">
    <rect fill="#F5F5F5" x="0" y="0" width="300" height="300"></rect>
    <g transform="translate(75.000000, 120.000000)" fill="#CCCCCC">
      <rect x="0" y="0" width="150" height="10" rx="5"></rect>
      <rect x="0" y="20" width="150" height="10" rx="5"></rect>
      <rect x="0" y="40" width="100" height="10" rx="5"></rect>
    </g>
    <path d="M123,93 C114.163444,93 107,85.836556 107,77 C107,68.163444 114.163444,61 123,61 C131.836556,61 139,68.163444 139,77 C139,85.836556 131.836556,93 123,93 Z M177,93 C168.163444,93 161,85.836556 161,77 C161,68.163444 168.163444,61 177,61 C185.836556,61 193,68.163444 193,77 C193,85.836556 185.836556,93 177,93 Z M150,163 C128.461883,163 111,145.538117 111,124 L111,100 L189,100 L189,124 C189,145.538117 171.538117,163 150,163 Z" fill="#CCCCCC"></path>
  </g>
</svg>